# xmcd
#
# Track frame offsets: 
#        150
#        12175
#        27192
#        41432
#        56075
#        79870
#        90450
#        107802
#        122990
#        151345
#        177295
#        194070
#        206215
#        223610
#        235915
#        252910
#        269950
#        287427
#        294565
#        306862
#
# Disc length: 4559 seconds
#
# Revision: 3
# Processed by: cddbd v1.4PL0 Copyright (c) Steve Scherf et al.
# Submitted via: ExactAudioCopy v0.95a1
#
DISCID=2c11cd14
DTITLE=New Grass Revival - Fly Through the Country
DYEAR=1991
DGENRE=Bluegrass
TTITLE0=Skippin' In the Mississippi Dew
TTITLE1=Good Woman's Love
TTITLE2=Glory
TTITLE3=All Night Train
TTITLE4=Fly Through the Country
TTITLE5=This Heart of Mine
TTITLE6=The Dancer
TTITLE7=When She Made Laughter Easy
TTITLE8=Doin' My Time
TTITLE9=These Days
TTITLE10=Four Days of Rain
TTITLE11=White Freightliner Blues
TTITLE12=Sail to Australia
TTITLE13=When the Storm is Over
TTITLE14=And He Says "I Love You"
TTITLE15=Vamp in the Middle
TTITLE16=Like a Child in the Rain
TTITLE17=Tennessee Wagoner
TTITLE18=Colly Davis
TTITLE19=Crooked Smile
EXTD=Flying Fish Records,  FF70032\n\nThis is a repackaging of two New
EXTD=Grass albums, Fly \nThrough The Country and When The Storm Is Ov
EXTD=er.
EXTT0=
EXTT1=
EXTT2=
EXTT3=
EXTT4=
EXTT5=
EXTT6=
EXTT7=
EXTT8=
EXTT9=
EXTT10=
EXTT11=
EXTT12=
EXTT13=
EXTT14=
EXTT15=
EXTT16=
EXTT17=
EXTT18=
EXTT19=
PLAYORDER=
